<svg width="86" height="84" viewBox="0 0 86 84" fill="none" xmlns="http://www.w3.org/2000/svg">
<path d="M45.1107 48.4988H45.1045L46.9295 77.9057C47.0541 79.8678 48.6799 81.4001 50.6482 81.4001C52.6166 81.4001 54.2423 79.8678 54.3669 77.9057L55.756 55.5686C55.8743 53.6937 57.363 52.1988 59.238 52.0804L74.4428 51.1212C76.405 50.9966 77.9311 49.3708 77.9311 47.4025C77.9311 45.4341 76.3987 43.8084 74.4366 43.6838L48.9041 42.1141C46.6679 41.9771 44.8241 43.8271 44.9612 46.057L45.1107 48.4863V48.4988Z" fill="white"/>
<path d="M41.9714 32.9013H41.9776L40.1463 3.49444C40.0217 1.53232 38.3959 0 36.4276 0C34.4592 0 32.8335 1.53232 32.7089 3.49444L31.3198 25.8315C31.2015 27.7064 29.7128 29.2013 27.8379 29.3197L12.633 30.279C10.6709 30.4035 9.14476 32.0293 9.14476 33.9976C9.14476 35.966 10.6771 37.5917 12.6392 37.7163L38.1717 39.286C40.4017 39.4231 42.2517 37.5793 42.1146 35.3431L41.9651 32.9076L41.9714 32.9013Z" fill="white"/>
<path d="M55.9553 23.9751L54.996 8.70794C54.8714 6.74582 53.2457 5.21973 51.2773 5.21973H49.228C47.2596 5.21973 45.6339 6.75205 45.5093 8.71417L43.8026 36.5015C43.6655 38.7315 45.5155 40.5815 47.7455 40.4445L50.2495 40.295L55.8307 39.9586L56.9581 39.8901L81.8428 38.3391C83.8049 38.2145 85.3372 36.5888 85.3372 34.6204V32.5711C85.3372 30.6027 83.8049 28.977 81.8428 28.8524L59.4435 27.4571C57.5686 27.3388 56.0736 25.85 55.9553 23.9751Z" fill="white"/>
<path d="M36.8315 41.0988L31.2503 41.4476L30.1291 41.5161L5.24444 43.0671C3.28232 43.1917 1.75 44.8175 1.75 46.7858V48.8351C1.75 50.8035 3.28232 52.4293 5.24444 52.5538L27.6438 53.9491C29.5187 54.0675 31.0136 55.5562 31.132 57.4311L32.0913 72.6983C32.2158 74.6604 33.8416 76.1865 35.8099 76.1865H37.8593C39.8276 76.1865 41.4534 74.6542 41.578 72.692L43.2847 44.9047C43.4217 42.6747 41.5717 40.8247 39.3418 40.9617L36.8377 41.1112L36.8315 41.0988Z" fill="white"/>
</svg>
