<svg width="49" height="48" viewBox="0 0 49 48" fill="none" xmlns="http://www.w3.org/2000/svg">
<path d="M25.7775 27.7135H25.774L26.8169 44.5175C26.8881 45.6387 27.8171 46.5143 28.9418 46.5143C30.0666 46.5143 30.9956 45.6387 31.0668 44.5175L31.8606 31.7534C31.9282 30.6821 32.7789 29.8278 33.8503 29.7602L42.5388 29.212C43.66 29.1408 44.532 28.2118 44.532 27.0871C44.532 25.9623 43.6564 25.0333 42.5352 24.9621L27.9452 24.0651C26.6674 23.9868 25.6138 25.044 25.6921 26.3182L25.7775 27.7064V27.7135Z" fill="#FFB71B"/>
<path d="M23.9836 18.8008H23.9872L22.9407 1.99683C22.8695 0.875613 21.9405 0 20.8158 0C19.691 0 18.762 0.875613 18.6908 1.99683L17.8971 14.7608C17.8294 15.8322 16.9787 16.6865 15.9074 16.7541L7.21884 17.3023C6.09763 17.3734 5.22558 18.3025 5.22558 19.4272C5.22558 20.552 6.10119 21.481 7.2224 21.5522L21.8124 22.4492C23.0867 22.5275 24.1438 21.4739 24.0655 20.1961L23.9801 18.8043L23.9836 18.8008Z" fill="#FFB71B"/>
<path d="M31.9744 13.7003L31.4263 4.97618C31.3551 3.85496 30.4261 2.98291 29.3013 2.98291H28.1303C27.0055 2.98291 26.0765 3.85852 26.0053 4.97974L25.03 20.8582C24.9517 22.1325 26.0089 23.1896 27.2831 23.1113L28.714 23.0259L31.9033 22.8337L32.5475 22.7946L46.7673 21.9083C47.8885 21.8371 48.7641 20.9081 48.7641 19.7833V18.6123C48.7641 17.4875 47.8885 16.5585 46.7673 16.4873L33.9677 15.69C32.8963 15.6224 32.0421 14.7717 31.9744 13.7003Z" fill="#FFB71B"/>
<path d="M21.0466 23.485L17.8573 23.6843L17.2166 23.7235L2.99683 24.6098C1.87561 24.6809 1 25.6099 1 26.7347V27.9058C1 29.0305 1.87561 29.9595 2.99683 30.0307L15.7964 30.828C16.8678 30.8957 17.7221 31.7464 17.7897 32.8177L18.3379 41.5418C18.409 42.663 19.3381 43.5351 20.4628 43.5351H21.6339C22.7586 43.5351 23.6876 42.6595 23.7588 41.5383L24.7341 25.6598C24.8124 24.3855 23.7553 23.3284 22.481 23.4067L21.0501 23.4921L21.0466 23.485Z" fill="#FFB71B"/>
</svg>
