<svg width="24" height="25" viewBox="0 0 24 25" fill="none" xmlns="http://www.w3.org/2000/svg">
<path d="M14.32 19.57C14.32 20.18 13.92 20.98 13.41 21.29L12 22.2C10.69 23.01 8.87 22.1 8.87 20.48V15.13C8.87 14.42 8.47 13.51 8.06 13.01L4.21997 8.97C3.70997 8.46 3.31 7.56001 3.31 6.95001V4.63C3.31 3.42 4.22002 2.51001 5.33002 2.51001H18.67C19.78 2.51001 20.69 3.42 20.69 4.53V6.75C20.69 7.56 20.18 8.57001 19.68 9.07001" stroke="#231F20" stroke-width="1.5" stroke-miterlimit="10" stroke-linecap="round" stroke-linejoin="round"/>
<path d="M16.07 17.0201C17.8373 17.0201 19.27 15.5874 19.27 13.8201C19.27 12.0528 17.8373 10.6201 16.07 10.6201C14.3027 10.6201 12.87 12.0528 12.87 13.8201C12.87 15.5874 14.3027 17.0201 16.07 17.0201Z" stroke="#231F20" stroke-width="1.5" stroke-linecap="round" stroke-linejoin="round"/>
<path d="M19.87 17.6201L18.87 16.6201" stroke="#231F20" stroke-width="1.5" stroke-linecap="round" stroke-linejoin="round"/>
</svg>
