<svg width="48" height="47" viewBox="0 0 48 47" fill="none" xmlns="http://www.w3.org/2000/svg">
<path d="M24.7775 27.7135H24.774L25.8169 44.5175C25.8881 45.6387 26.8171 46.5143 27.9418 46.5143C29.0666 46.5143 29.9956 45.6387 30.0668 44.5175L30.8605 31.7534C30.9282 30.6821 31.7789 29.8278 32.8502 29.7602L41.5388 29.212C42.66 29.1408 43.532 28.2118 43.532 27.0871C43.532 25.9623 42.6564 25.0333 41.5352 24.9621L26.9452 24.0651C25.6674 23.9868 24.6138 25.044 24.6921 26.3182L24.7775 27.7064V27.7135Z" fill="#FFB71B"/>
<path d="M22.9836 18.8008H22.9872L21.9407 1.99683C21.8696 0.875613 20.9405 0 19.8158 0C18.691 0 17.762 0.875613 17.6908 1.99683L16.8971 14.7608C16.8294 15.8322 15.9787 16.6865 14.9074 16.7541L6.21885 17.3023C5.09764 17.3734 4.22559 18.3025 4.22559 19.4272C4.22559 20.552 5.1012 21.481 6.22241 21.5522L20.8124 22.4492C22.0867 22.5275 23.1438 21.4739 23.0655 20.1961L22.9801 18.8043L22.9836 18.8008Z" fill="#FFB71B"/>
<path d="M30.9744 13.7003L30.4262 4.97618C30.355 3.85496 29.426 2.98291 28.3013 2.98291H27.1302C26.0054 2.98291 25.0764 3.85852 25.0052 4.97974L24.03 20.8582C23.9517 22.1325 25.0088 23.1896 26.2831 23.1113L27.714 23.0259L30.9032 22.8337L31.5474 22.7946L45.7673 21.9083C46.8885 21.8371 47.7641 20.9081 47.7641 19.7833V18.6123C47.7641 17.4875 46.8885 16.5585 45.7673 16.4873L32.9676 15.69C31.8963 15.6224 31.042 14.7717 30.9744 13.7003Z" fill="#FFB71B"/>
<path d="M20.0466 23.4847L16.8573 23.6841L16.2166 23.7232L1.99683 24.6095C0.875613 24.6807 0 25.6097 0 26.7345V27.9055C0 29.0303 0.875613 29.9593 1.99683 30.0305L14.7964 30.8278C15.8678 30.8954 16.7221 31.7461 16.7897 32.8175L17.3379 41.5416C17.409 42.6628 18.3381 43.5349 19.4628 43.5349H20.6339C21.7586 43.5349 22.6876 42.6592 22.7588 41.538L23.7341 25.6595C23.8124 24.3853 22.7553 23.3281 21.481 23.4064L20.0501 23.4919L20.0466 23.4847Z" fill="#FFB71B"/>
</svg>
